<svg width="10" height="20" viewBox="0 0 10 20" fill="none" xmlns="http://www.w3.org/2000/svg">
<path d="M5.71995 19.6689L9.71194 15.725C10.0997 15.3193 10.0997 14.6658 9.68913 14.2827C9.27853 13.8995 8.63981 13.8995 8.25202 14.2827L6.03931 16.4687L6.03931 1.01415C6.03931 0.450731 5.56027 -1.94067e-07 4.98999 -2.18995e-07C4.4197 -2.43922e-07 3.96348 0.450731 3.96348 1.01415L3.96348 16.4687L1.75077 14.2827C1.34017 13.8995 0.678637 13.8995 0.290843 14.3052C-0.0969493 14.7108 -0.0969493 15.3419 0.290843 15.725L4.28284 19.6689C4.67063 20.0746 5.30935 20.1196 5.71995 19.7365C5.71995 19.714 5.74276 19.714 5.71995 19.6689Z" fill="#C4C4C4"/>
</svg>
