<svg width="20" height="30" viewBox="0 0 20 30" fill="none" xmlns="http://www.w3.org/2000/svg">
<path d="M10 30C4.47592 30 0 25.3554 0 19.6592V10.3116C0 4.61538 4.47592 0 10 0C15.5241 0 20 4.61538 20 10.3116V19.6592C20 25.3554 15.5241 30 10 30ZM10 2.48296C5.80736 2.48296 2.40793 5.98832 2.40793 10.3116V19.6592C2.40793 23.9825 5.80736 27.4878 10 27.4878C14.1926 27.4878 17.5921 23.9825 17.5921 19.6592V10.3116C17.5921 5.98832 14.1926 2.48296 10 2.48296Z" fill="#C4C4C4"/>
<path d="M10 12.5C9.10853 12.5 8.33333 11.8504 8.33333 11.0299V7.30342C8.33333 6.51709 9.06977 5.83333 10 5.83333C10.9302 5.83333 11.6667 6.48291 11.6667 7.30342V11.0299C11.6667 11.8504 10.9302 12.5 10 12.5Z" fill="#C4C4C4"/>
</svg>
